<svg xmlns="http://www.w3.org/2000/svg" fill="none" viewBox="2.2 2.25 25.6 26.16">
<path d="M15 2.24829C11.5237 2.24829 11.0878 2.26335 9.72256 2.32701C8.36016 2.39057 7.42968 2.61167 6.61546 2.93506C5.77375 3.26936 5.05993 3.71665 4.34834 4.44387C3.63675 5.17109 3.19908 5.90059 2.87197 6.7608C2.55553 7.59285 2.33918 8.54377 2.27699 9.93611C2.2147 11.3314 2.20001 11.7768 2.20001 15.3295C2.20001 18.8821 2.2147 19.3276 2.27699 20.7228C2.33918 22.1151 2.55553 23.0661 2.87197 23.8981C3.19908 24.7583 3.63675 25.4878 4.34834 26.2151C5.05993 26.9423 5.77375 27.3896 6.61546 27.7239C7.42968 28.0472 8.36016 28.2684 9.72256 28.3319C11.0878 28.3956 11.5237 28.4106 15 28.4106C18.4762 28.4106 18.9121 28.3956 20.2774 28.3319C21.6398 28.2684 22.5703 28.0472 23.3844 27.7239C24.2261 27.3896 24.94 26.9423 25.6516 26.2151C26.3632 25.4878 26.8009 24.7583 27.128 23.8981C27.4444 23.0661 27.6608 22.1151 27.7229 20.7228C27.7852 19.3276 27.7999 18.8821 27.7999 15.3295C27.7999 11.7768 27.7852 11.3314 27.7229 9.93611C27.6608 8.54377 27.4444 7.59285 27.128 6.7608C26.8009 5.90059 26.3632 5.17109 25.6516 4.44387C24.94 3.71665 24.2261 3.26936 23.3844 2.93506C22.5703 2.61167 21.6398 2.39057 20.2774 2.32701C18.9121 2.26335 18.4762 2.24829 15 2.24829ZM15 4.60531C18.4177 4.60531 18.8225 4.6186 20.1722 4.68153C21.4202 4.73974 22.098 4.95284 22.549 5.13194C23.1465 5.36924 23.5729 5.65275 24.0208 6.11048C24.4687 6.5682 24.7461 7.00402 24.9783 7.61456C25.1536 8.0755 25.3621 8.76814 25.419 10.0435C25.4806 11.4229 25.4936 11.8366 25.4936 15.3295C25.4936 18.8223 25.4806 19.236 25.419 20.6154C25.3621 21.8908 25.1536 22.5834 24.9783 23.0444C24.7461 23.6549 24.4687 24.0907 24.0208 24.5484C23.5729 25.0062 23.1465 25.2897 22.549 25.527C22.098 25.7061 21.4202 25.9192 20.1722 25.9774C18.8227 26.0403 18.4179 26.0537 15 26.0537C11.582 26.0537 11.1772 26.0403 9.82769 25.9774C8.5797 25.9192 7.90196 25.7061 7.45092 25.527C6.85345 25.2897 6.42706 25.0062 5.97912 24.5484C5.53124 24.0907 5.25382 23.6549 5.02167 23.0444C4.84637 22.5834 4.63785 21.8908 4.58089 20.6154C4.51931 19.236 4.50631 18.8223 4.50631 15.3295C4.50631 11.8366 4.51931 11.4229 4.58089 10.0435C4.63785 8.76814 4.84637 8.0755 5.02167 7.61456C5.25382 7.00402 5.53124 6.5682 5.97912 6.11048C6.42706 5.65275 6.85345 5.36924 7.45092 5.13194C7.90196 4.95284 8.5797 4.73974 9.82769 4.68153C11.1774 4.6186 11.5822 4.60531 15 4.60531Z" fill="white"/>
<path d="M15 19.6898C12.6435 19.6898 10.7333 17.7376 10.7333 15.3294C10.7333 12.9212 12.6435 10.969 15 10.969C17.3564 10.969 19.2666 12.9212 19.2666 15.3294C19.2666 17.7376 17.3564 19.6898 15 19.6898ZM15 8.61206C11.3698 8.61206 8.427 11.6195 8.427 15.3294C8.427 19.0393 11.3698 22.0468 15 22.0468C18.6301 22.0468 21.5729 19.0393 21.5729 15.3294C21.5729 11.6195 18.6301 8.61206 15 8.61206Z" fill="white"/>
<path d="M23.3686 8.34681C23.3686 9.21377 22.6809 9.91653 21.8326 9.91653C20.9843 9.91653 20.2966 9.21377 20.2966 8.34681C20.2966 7.47986 20.9843 6.7771 21.8326 6.7771C22.6809 6.7771 23.3686 7.47986 23.3686 8.34681Z" fill="white"/>
</svg>