<svg xmlns="http://www.w3.org/2000/svg" fill="none" viewBox="0.91 4.81 14.22 23.97">
<path d="M7.41 24.986L8.866 25.012V28.782H7.41V24.986ZM7.54 24.7V8.866L8.71 8.684V24.752L7.54 24.7ZM7.41 4.81H8.866V8.528L7.41 8.71V4.81ZM13.208 11.414C13 11.1713 12.7227 10.9373 12.376 10.712C12.0293 10.4867 11.6393 10.2873 11.206 10.114C10.7727 9.92333 10.296 9.776 9.776 9.672C9.27333 9.55067 8.74467 9.49 8.19 9.49C6.76867 9.49 5.72 9.75867 5.044 10.296C4.368 10.8333 4.03 11.57 4.03 12.506C4.03 13.1647 4.20333 13.6847 4.55 14.066C4.89667 14.4473 5.42533 14.7593 6.136 15.002C6.864 15.2447 7.78267 15.496 8.892 15.756C10.1747 16.0333 11.284 16.3713 12.22 16.77C13.156 17.1687 13.8753 17.706 14.378 18.382C14.8807 19.0407 15.132 19.9247 15.132 21.034C15.132 21.918 14.9587 22.6893 14.612 23.348C14.2827 23.9893 13.8147 24.5267 13.208 24.96C12.6013 25.376 11.8907 25.688 11.076 25.896C10.2613 26.0867 9.37733 26.182 8.424 26.182C7.488 26.182 6.56933 26.0867 5.668 25.896C4.784 25.688 3.94333 25.3933 3.146 25.012C2.34867 24.6307 1.60333 24.154 0.91 23.582L2.028 21.606C2.30533 21.9007 2.66067 22.1953 3.094 22.49C3.54467 22.7673 4.04733 23.0273 4.602 23.27C5.174 23.5127 5.78933 23.712 6.448 23.868C7.10667 24.0067 7.78267 24.076 8.476 24.076C9.79333 24.076 10.816 23.842 11.544 23.374C12.272 22.8887 12.636 22.1867 12.636 21.268C12.636 20.5747 12.428 20.02 12.012 19.604C11.6133 19.188 11.0153 18.8413 10.218 18.564C9.42067 18.2867 8.45 18.0093 7.306 17.732C6.058 17.42 5.00933 17.082 4.16 16.718C3.31067 16.3367 2.66933 15.8427 2.236 15.236C1.82 14.6293 1.612 13.8407 1.612 12.87C1.612 11.6913 1.898 10.6947 2.47 9.88C3.042 9.06533 3.83067 8.45 4.836 8.034C5.84133 7.618 6.97667 7.41 8.242 7.41C9.074 7.41 9.84533 7.49667 10.556 7.67C11.284 7.84333 11.96 8.086 12.584 8.398C13.208 8.71 13.78 9.08267 14.3 9.516L13.208 11.414Z" fill="#191919"/>
</svg>