<svg xmlns="http://www.w3.org/2000/svg" fill="none" viewBox="0 0 28 28">
<g clip-path="url(#clip0_1_380)">
<path d="M25.6926 4.05737C22.6179 0.980875 17.6312 0.980875 14.5565 4.05737L1.79023 16.6723C-0.59764 19.0601 -0.59764 22.9469 1.79023 25.3348C4.17811 27.7226 8.06398 27.7226 10.451 25.3348L23.2172 12.719C24.9261 11.0101 24.9261 8.24075 23.2172 6.53188C21.5084 4.82388 18.7381 4.82388 17.031 6.53188L7.43398 16.1289C7.09186 16.4719 7.09186 17.024 7.43398 17.367C7.77611 17.7091 8.32911 17.7091 8.67123 17.367L18.2691 7.76912C19.2929 6.74625 20.9571 6.74625 21.9809 7.76912C23.0046 8.79287 23.0046 10.458 21.9809 11.4817L9.21461 24.0966C7.50573 25.8055 4.73723 25.8055 3.02836 24.0966C1.31948 22.3886 1.31948 19.6184 3.02836 17.9104L15.6695 5.418C18.0617 3.02575 21.9415 3.02575 24.3302 5.418C26.7242 7.81112 26.7242 11.6874 24.332 14.0796L14.8592 23.5532C14.5154 23.8962 14.5154 24.4484 14.8592 24.7905C15.2014 25.1335 15.7544 25.1335 16.0965 24.7905L25.6926 15.1935C28.7691 12.1188 28.7691 7.13212 25.6926 4.05737Z" fill="#191919"/>
</g>
<defs>
<clipPath id="clip0_1_380">
<rect width="28" height="28" fill="white"/>
</clipPath>
</defs>
</svg>