<svg xmlns="http://www.w3.org/2000/svg" fill="none" viewBox="0 0 24 24">
<g clip-path="url(#clip0_1_428)">
<path d="M21 4H12V3C12 2.20435 11.6839 1.44129 11.1213 0.87868C10.5587 0.31607 9.79565 0 9 0L3 0C2.20435 0 1.44129 0.31607 0.87868 0.87868C0.31607 1.44129 0 2.20435 0 3L0 19C0.00158786 20.3256 0.528882 21.5964 1.46622 22.5338C2.40356 23.4711 3.67441 23.9984 5 24H19C20.3256 23.9984 21.5964 23.4711 22.5338 22.5338C23.4711 21.5964 23.9984 20.3256 24 19V7C24 6.20435 23.6839 5.44129 23.1213 4.87868C22.5587 4.31607 21.7956 4 21 4ZM22 19C22 19.7956 21.6839 20.5587 21.1213 21.1213C20.5587 21.6839 19.7956 22 19 22H5C4.20435 22 3.44129 21.6839 2.87868 21.1213C2.31607 20.5587 2 19.7956 2 19V3C2 2.73478 2.10536 2.48043 2.29289 2.29289C2.48043 2.10536 2.73478 2 3 2H9C9.26522 2 9.51957 2.10536 9.70711 2.29289C9.89464 2.48043 10 2.73478 10 3V4H5C4.73478 4 4.48043 4.10536 4.29289 4.29289C4.10536 4.48043 4 4.73478 4 5C4 5.26522 4.10536 5.51957 4.29289 5.70711C4.48043 5.89464 4.73478 6 5 6H21C21.2652 6 21.5196 6.10536 21.7071 6.29289C21.8946 6.48043 22 6.73478 22 7V19Z" fill="#191919"/>
<path d="M14 18H5C4.73478 18 4.48043 18.1054 4.29289 18.2929C4.10536 18.4804 4 18.7348 4 19C4 19.2652 4.10536 19.5196 4.29289 19.7071C4.48043 19.8946 4.73478 20 5 20H14C14.2652 20 14.5196 19.8946 14.7071 19.7071C14.8946 19.5196 15 19.2652 15 19C15 18.7348 14.8946 18.4804 14.7071 18.2929C14.5196 18.1054 14.2652 18 14 18Z" fill="#191919"/>
<path d="M5 16H9C9.26522 16 9.51957 15.8946 9.70711 15.7071C9.89464 15.5196 10 15.2652 10 15C10 14.7348 9.89464 14.4804 9.70711 14.2929C9.51957 14.1054 9.26522 14 9 14H5C4.73478 14 4.48043 14.1054 4.29289 14.2929C4.10536 14.4804 4 14.7348 4 15C4 15.2652 4.10536 15.5196 4.29289 15.7071C4.48043 15.8946 4.73478 16 5 16Z" fill="#191919"/>
</g>
<defs>
<clipPath id="clip0_1_428">
<rect width="24" height="24" fill="white"/>
</clipPath>
</defs>
</svg>