<svg xmlns="http://www.w3.org/2000/svg" fill="none" viewBox="1.02 8.43 12.36 21.57">
<path d="M3.99 23.37C3.99 22.67 4.07 22.03 4.23 21.45C4.39 20.87 4.65 20.34 5.01 19.86C5.37 19.36 5.86 18.92 6.48 18.54C6.82 18.34 7.22 18.12 7.68 17.88C8.14 17.62 8.58 17.32 9 16.98C9.42 16.64 9.77 16.24 10.05 15.78C10.35 15.32 10.5 14.78 10.5 14.16C10.5 13.5 10.34 12.95 10.02 12.51C9.7 12.05 9.29 11.71 8.79 11.49C8.31 11.25 7.78 11.13 7.2 11.13C6.58 11.13 6.01 11.26 5.49 11.52C4.97 11.78 4.52 12.11 4.14 12.51C3.76 12.91 3.44 13.33 3.18 13.77L1.02 12.3C1.38 11.48 1.88 10.78 2.52 10.2C3.16 9.62 3.89 9.18 4.71 8.88C5.53 8.58 6.39 8.43 7.29 8.43C8.03 8.43 8.76 8.55 9.48 8.79C10.22 9.01 10.88 9.36 11.46 9.84C12.04 10.32 12.5 10.93 12.84 11.67C13.2 12.39 13.38 13.26 13.38 14.28C13.38 14.98 13.29 15.59 13.11 16.11C12.95 16.61 12.71 17.06 12.39 17.46C12.07 17.86 11.7 18.22 11.28 18.54C10.86 18.84 10.4 19.13 9.9 19.41C9.4 19.71 8.91 20.02 8.43 20.34C7.95 20.64 7.55 21.02 7.23 21.48C6.91 21.94 6.75 22.57 6.75 23.37H3.99ZM4.08 30V26.22H6.81V30H4.08Z" fill="#191919"/>
</svg>