<svg xmlns="http://www.w3.org/2000/svg" fill="none" viewBox="8.66 8.75 24.59 24.5">
<path d="M14 33.25H8.75V15.75H14V33.25ZM33.25 33.25H28V23.9015C28 21.4655 27.132 20.2527 25.4117 20.2527C24.0485 20.2527 23.184 20.9317 22.75 22.2915C22.75 24.5 22.75 33.25 22.75 33.25H17.5C17.5 33.25 17.57 17.5 17.5 15.75H21.644L21.9642 19.25H22.0727C23.149 17.5 24.8692 16.3135 27.2283 16.3135C29.022 16.3135 30.4727 16.8122 31.5805 18.0652C32.6952 19.32 33.25 21.0035 33.25 23.3677V33.25Z" fill="white"/>
<path d="M11.375 14C12.873 14 14.0875 12.8247 14.0875 11.375C14.0875 9.92525 12.873 8.75 11.375 8.75C9.8769 8.75 8.66248 9.92525 8.66248 11.375C8.66248 12.8247 9.8769 14 11.375 14Z" fill="white"/>
</svg>